<?xml version="1.0" encoding="UTF-8"?>
<svg id="logotipo" xmlns="http://www.w3.org/2000/svg" viewBox="0 0 1920 1080">
  <defs>
    <style>
      .cls-1 {
        fill: #fff;
      }
    </style>
  </defs>
  <rect class="cls-1" x="-5" y="-5" width="1930" height="1090"/>
  <g>
    <g>
      <path d="M360.48,554.58c0,11.72,6.52,19.71,19.71,19.71s19.84-7.59,19.84-19.71v-67.77h11.72v68.57c0,8.66-2.93,15.71-8.92,21.17-5.86,5.46-13.32,8.12-22.5,8.12s-16.78-2.66-22.5-8.12c-5.72-5.46-8.65-12.78-8.65-21.97h11.32Z"/>
      <path d="M767.01,486.81h11.72v60.05c0,8.12,2.53,14.78,7.46,19.84,5.06,4.93,11.72,7.46,19.84,7.46s14.78-2.53,19.71-7.46c4.93-5.06,7.46-11.72,7.46-19.84v-60.05h11.85v60.58c0,11.32-3.59,20.37-10.78,27.16-7.06,6.79-16.51,10.12-28.23,10.12s-21.3-3.46-28.36-10.25c-7.06-6.79-10.65-15.84-10.65-27.03v-60.58Z"/>
      <path d="M1033.68,554.05c0,13.31,9.99,20.64,25.56,20.64s24.23-6.66,24.23-17.71c0-9.05-5.59-14.65-16.91-16.78l-16.24-2.93c-17.04-3.2-25.3-12.65-25.3-25.03,0-8.12,3.2-14.51,9.45-19.44,6.26-4.93,14.51-7.32,24.77-7.32s18.38,2.53,24.77,7.46c6.39,4.93,9.59,11.72,9.72,20.5h-11.58c-.13-10.65-9.19-18.11-23.03-18.11-12.92,0-21.57,6.26-21.57,16.24,0,4.66,2.4,8.39,4.53,10.39,1.06.93,2.53,1.73,4.53,2.53,4.13,1.6,4.79,1.6,7.99,2.26l15.98,2.93c17.04,3.2,25.56,12.92,25.56,26.36,0,8.65-3.33,15.71-9.99,20.9-6.66,5.19-15.58,7.72-26.76,7.72s-20.37-2.66-27.16-8.12c-6.79-5.46-10.12-13.05-10.12-22.5h11.58Z"/>
      <path d="M1215.89,486.81h11.72v60.05c0,8.12,2.53,14.78,7.46,19.84,5.06,4.93,11.72,7.46,19.84,7.46s14.78-2.53,19.71-7.46c4.93-5.06,7.46-11.72,7.46-19.84v-60.05h11.85v60.58c0,11.32-3.59,20.37-10.78,27.16-7.06,6.79-16.51,10.12-28.23,10.12s-21.3-3.46-28.36-10.25c-7.06-6.79-10.65-15.84-10.65-27.03v-60.58Z"/>
      <path d="M1453.28,583.34h-11.72v-96.53h11.72v96.53Z"/>
      <path d="M1496.81,498.66c8.12-8.79,18.51-13.18,31.16-13.18s23.57,4.53,31.29,13.58c7.72,9.05,11.58,21.04,11.58,35.95s-4,27.56-11.98,36.48c-7.86,8.79-18.24,13.18-30.89,13.18s-23.7-4.53-31.56-13.58c-7.72-9.05-11.58-21.04-11.58-36.08s4-27.56,11.98-36.35ZM1527.97,574.02c9.72,0,17.18-3.46,22.5-10.52,5.33-7.06,7.99-16.64,7.99-28.49,0-25.43-12.25-38.88-30.49-38.88-9.72,0-17.31,3.46-22.77,10.52-5.33,7.06-7.99,16.51-7.99,28.36,0,25.56,12.52,39.01,30.76,39.01Z"/>
      <path d="M483.11,486.81h-12.25l-19.35,50.09,8.53,8.57,17.08-45.75,17.31,46.74h-34.31c.07,0,.13,0,.2,0h-12.5l-14.24,36.88h12.38l10.12-27.03h42.08l9.99,27.03h12.78l-37.81-96.53Z"/>
      <g>
        <polygon points="892.41 539.93 933.15 539.93 933.15 530.08 892.41 530.07 880.69 530.07 880.69 583.34 947.53 583.34 947.53 572.82 892.41 572.82 892.41 539.93"/>
        <polygon points="880.69 486.81 892.41 497.19 947.53 497.19 947.53 486.81 880.69 486.81"/>
      </g>
      <rect x="1116.56" y="486.81" width="72.97" height="9.85"/>
      <path d="M1396.55,499.59c-8.92-8.52-21.3-12.78-37.02-12.78h-29.96v10.39h31.29c22.5,0,36.75,13.85,36.75,37.95,0,11.58-3.2,20.77-9.72,27.56-6.39,6.79-15.44,10.12-27.03,10.12h-19.57l-11.72,10.52h29.96c15.71,0,28.09-4.26,37.02-12.78,8.92-8.66,13.45-20.51,13.45-35.55s-4.53-26.9-13.45-35.42Z"/>
      <path d="M1341.29,498.18h0c-4.58,4.58-7.14,7.14-11.72,11.72v73.45h11.72v-85.16Z"/>
      <path d="M740.1,586.45l-8.69,8.42-17.24-16.44c-6.55,4.14-14.17,6.28-22.86,6.28-13.23,0-23.79-4.54-31.68-13.63-7.75-9.09-11.63-21.12-11.63-36.22s4.01-27.67,12.03-36.49c8.15-8.82,18.58-13.23,31.28-13.23s23.66,4.54,31.41,13.63c7.75,9.09,11.63,21.12,11.63,36.09s-3.74,26.87-11.36,35.82l17.11,15.77ZM691.31,574.02c9.76,0,17.24-3.48,22.59-10.56,5.35-7.08,8.02-16.71,8.02-28.6,0-25.53-12.3-39.03-30.61-39.03-9.76,0-17.38,3.47-22.86,10.56-5.35,7.08-8.02,16.57-8.02,28.47,0,25.66,12.56,39.16,30.88,39.16Z"/>
    </g>
    <path d="M1158.9,498.32v-.68c-4.58,4.58-7.14,7.14-11.72,11.72v73.98h11.72v-85.02Z"/>
    <path d="M892.41,529.08c-4.58-4.58-7.14-7.14-11.72-11.72v-30.56s11.72,0,11.72,0v42.28Z"/>
    <path d="M601.7,543.4c12.38-3.73,20.51-14.11,20.51-27.03,0-14.65-8.39-29.56-34.49-29.56h-39.94v35.73c4.58,4.58,7.14,7.14,11.72,11.72v-37.19h27.83c14.38,0,22.77,6.66,22.77,19.04s-7.32,19.17-22.77,19.17l-27.83-.04h-11.72v48.11h11.72v-38.21h29.96l19.71,38.21h13.45l-20.9-39.94Z"/>
    <path d="M740.1,586.45l-8.69,8.42-17.24-16.44c-6.55,4.14-14.17,6.28-22.86,6.28-13.23,0-23.79-4.54-31.68-13.63-7.75-9.09-11.63-21.12-11.63-36.22s4.01-27.67,12.03-36.49c8.15-8.82,18.58-13.23,31.28-13.23s23.66,4.54,31.41,13.63c7.75,9.09,11.63,21.12,11.63,36.09s-3.74,26.87-11.36,35.82l17.11,15.77ZM691.31,574.02c9.76,0,17.24-3.48,22.59-10.56,5.35-7.08,8.02-16.71,8.02-28.6,0-25.53-12.3-39.03-30.61-39.03-9.76,0-17.38,3.47-22.86,10.56-5.35,7.08-8.02,16.57-8.02,28.47,0,25.66,12.56,39.16,30.88,39.16Z"/>
  </g>
</svg>